<svg width="20" height="20" viewBox="0 0 20 20" fill="none" xmlns="http://www.w3.org/2000/svg">
<path d="M6.4375 1.6875C6.86797 1.6875 7.22793 1.9918 7.30957 2.4C7.36523 2.67461 7.61016 2.875 7.89219 2.875H8.21875C8.54531 2.875 8.8125 3.14219 8.8125 3.46875V4.0625H4.0625V3.46875C4.0625 3.14219 4.32969 2.875 4.65625 2.875H4.98281C5.26484 2.875 5.50977 2.67461 5.56543 2.4C5.64707 1.9918 6.00703 1.6875 6.4375 1.6875ZM2.875 2.875H2.9752C2.91211 3.06055 2.875 3.26094 2.875 3.46875V4.0625C2.875 4.71934 3.40566 5.25 4.0625 5.25H8.8125C9.46934 5.25 10 4.71934 10 4.0625V3.46875C10 3.26094 9.96289 3.06055 9.89981 2.875H10C10.6568 2.875 11.1875 3.40566 11.1875 4.0625H12.375C12.375 2.75254 11.31 1.6875 10 1.6875H8.31523C7.98125 0.986133 7.26504 0.5 6.4375 0.5C5.60996 0.5 4.89375 0.986133 4.55977 1.6875H2.875C1.56504 1.6875 0.5 2.75254 0.5 4.0625V14.75C0.5 16.06 1.56504 17.125 2.875 17.125H7.625V15.9375H2.875C2.21816 15.9375 1.6875 15.4068 1.6875 14.75V4.0625C1.6875 3.40566 2.21816 2.875 2.875 2.875ZM11.1875 18.3125C10.5307 18.3125 10 17.7818 10 17.125V7.625C10 6.96816 10.5307 6.4375 11.1875 6.4375H14.75V8.51562C14.75 9.33574 15.4143 10 16.2344 10H18.3125V17.125C18.3125 17.7818 17.7818 18.3125 17.125 18.3125H11.1875ZM15.9375 6.63418L18.1158 8.8125H16.2344C16.0711 8.8125 15.9375 8.67891 15.9375 8.51562V6.63418ZM17.125 19.5C18.435 19.5 19.5 18.435 19.5 17.125V9.2541C19.5 8.78281 19.3107 8.33008 18.9768 7.99609L16.7539 5.77324C16.4199 5.43926 15.9672 5.25 15.4959 5.25H11.1875C9.87754 5.25 8.8125 6.31504 8.8125 7.625V17.125C8.8125 18.435 9.87754 19.5 11.1875 19.5H17.125Z" fill="#211F1F" fill-opacity="0.54"/>
</svg>
