<svg width="18" height="20" viewBox="0 0 18 20" fill="none" xmlns="http://www.w3.org/2000/svg">
<path d="M8.37285 1.09375C8.37285 0.765852 8.67344 0.5 8.9666 0.5C9.32656 0.5 9.59375 0.765852 9.59375 1.09375V1.71682C12.5959 2.0148 14.9375 4.54492 14.9375 7.625V8.70488C14.9375 10.3266 15.5832 11.8814 16.7299 13.0318L16.8301 13.132C17.1381 13.44 17.3125 13.826 17.3125 14.2936C17.3125 15.2027 16.5777 15.9375 15.6686 15.9375H2.3307C1.42338 15.9375 0.6875 15.2027 0.6875 14.2936C0.6875 13.826 0.860652 13.44 1.16881 13.132L1.27086 13.0318C2.41791 11.8814 3.0625 10.3266 3.0625 8.70488V7.625C3.0625 4.54492 5.4041 2.0148 8.40625 1.71682L8.37285 1.09375ZM8.9666 2.875C6.37637 2.875 4.2166 5.00137 4.2166 7.625V8.70488C4.2166 10.642 3.48035 12.5012 2.11064 13.8705L2.00859 13.9707C1.92287 14.0561 1.8416 14.1748 1.8416 14.2936C1.8416 14.5459 2.0791 14.75 2.3307 14.75H15.6686C15.9209 14.75 16.125 14.5459 16.125 14.2936C16.125 14.1748 16.0768 14.0561 15.9914 13.9707L15.8912 13.8705C14.5182 12.5012 13.75 10.642 13.75 8.70488V7.625C13.75 5.00137 11.6236 2.875 8.9666 2.875ZM8.9666 18.3125C9.51582 18.3125 9.95742 17.9822 10.1207 17.5221C10.2283 17.2104 10.5697 17.0174 10.8777 17.1584C11.1857 17.2697 11.349 17.6074 11.2414 17.9154C10.9148 18.8395 10.0354 19.5 8.9666 19.5C7.96465 19.5 7.08516 18.8395 6.75859 17.9154C6.65098 17.6074 6.81426 17.2697 7.12227 17.1584C7.43027 17.0174 7.77168 17.2104 7.8793 17.5221C8.04258 17.9822 8.48418 18.3125 8.9666 18.3125Z" fill="white"/>
</svg>
