<svg width="22" height="20" viewBox="0 0 22 20" fill="none" xmlns="http://www.w3.org/2000/svg">
<path d="M21.3721 9.02402C21.7469 9.34316 21.7951 9.90352 21.476 10.2783C21.1568 10.6531 20.5965 10.7014 20.2217 10.3822L19.3125 9.61035V16.5312C19.3125 18.1715 17.984 19.5 16.3437 19.5H5.65625C4.01676 19.5 2.6875 18.1715 2.6875 16.5312V9.61035L1.77943 10.3822C1.40426 10.7014 0.84242 10.6531 0.524022 10.2783C0.205809 9.90352 0.251862 9.34316 0.626926 9.02402L10.4248 0.711523C10.7551 0.429492 11.2449 0.429492 11.5752 0.711523L21.3721 9.02402ZM5.65625 17.7188H7.4375V12.0781C7.4375 11.258 8.10176 10.5938 8.92187 10.5938H13.0781C13.8982 10.5938 14.5625 11.258 14.5625 12.0781V17.7188H16.3437C17.0006 17.7188 17.5312 17.1881 17.5312 16.5312V8.1L11 2.55846L4.46875 8.1V16.5312C4.46875 17.1881 4.99941 17.7188 5.65625 17.7188ZM9.21875 17.7188H12.7812V12.375H9.21875V17.7188Z" fill="#30B34B"/>
</svg>
