<svg width="19" height="20" viewBox="0 0 19 20" fill="none" xmlns="http://www.w3.org/2000/svg">
<path d="M10.8906 10.2969C10.8906 10.7904 10.4936 11.1875 10 11.1875C9.50644 11.1875 9.10938 10.7904 9.10938 10.2969V1.39062C9.10938 0.898926 9.50644 0.5 10 0.5C10.4936 0.5 10.8906 0.898926 10.8906 1.39062V10.2969ZM2.57812 10.2227C2.57812 14.1562 5.73613 17.3477 9.70312 17.3477C13.6367 17.3477 16.8281 14.1562 16.8281 10.2227C16.8281 7.86992 15.6889 5.78066 13.9262 4.48184C13.5291 4.1909 13.4438 3.63314 13.7369 3.23719C14.0264 2.84123 14.5867 2.75699 14.9801 3.04867C17.1807 4.66738 18.6094 7.27988 18.6094 10.2227C18.6094 15.1434 14.6201 19.1289 9.70312 19.1289C4.78613 19.1289 0.796875 15.1434 0.796875 10.2227C0.796875 7.27988 2.22633 4.66738 4.42617 3.04867C4.81953 2.75699 5.37988 2.84123 5.66934 3.23719C5.9625 3.63314 5.87715 4.1909 5.48008 4.48184C3.71887 5.78066 2.54473 7.86992 2.54473 10.2227H2.57812Z" fill="#211F1F" fill-opacity="0.64"/>
</svg>
