<svg width="16" height="20" viewBox="0 0 16 20" fill="none" xmlns="http://www.w3.org/2000/svg">
<path d="M12.75 19.5H3.25C1.93818 19.5 0.875 18.435 0.875 17.125V2.875C0.875 1.56318 1.93818 0.5 3.25 0.5H9.98535C10.6162 0.5 11.2174 0.750229 11.6627 1.1958L14.4311 3.96082C14.8764 4.40762 15.125 5.00879 15.125 5.63965V17.125C15.125 18.435 14.06 19.5 12.75 19.5ZM3.25 17.7188H12.75C13.0766 17.7188 13.3438 17.4516 13.3438 17.125V5.63965C13.3438 5.48379 13.2807 5.33164 13.1693 5.22031L10.4047 2.45529C10.2934 2.34396 10.1412 2.28125 9.98535 2.28125H3.25C2.92195 2.28125 2.65625 2.54695 2.65625 2.875V17.125C2.65625 17.4516 2.92195 17.7188 3.25 17.7188Z" fill="#211F1F" fill-opacity="0.64"/>
</svg>
