<svg width="20" height="18" viewBox="0 0 20 18" fill="none" xmlns="http://www.w3.org/2000/svg">
<path d="M4.0625 6.59159H1.6875C1.03178 6.59159 0.5 7.12337 0.5 7.74569V16.0248C0.5 16.6805 1.03178 17.1789 1.6875 17.1789H4.0625C4.71822 17.1789 5.25 16.6471 5.25 16.0248V7.77909C5.25 7.15565 4.71934 6.59159 4.0625 6.59159ZM19.5 7.92382C19.5 6.55485 18.3849 5.44046 17.0148 5.44046H13.309C13.6627 4.51347 13.8594 3.7119 13.8594 3.24062C13.8594 1.98632 12.8871 0.688232 11.2595 0.688232C9.52982 0.688232 9.05668 1.89206 8.67631 2.85913C7.50143 5.84644 6.4375 5.32282 6.4375 6.32774C6.4375 6.80423 6.82195 7.218 7.32887 7.218C7.52391 7.218 7.72037 7.15413 7.88439 7.0228C10.7329 4.7454 10.0356 2.46948 11.2595 2.46948C11.8562 2.46948 12.0781 2.94263 12.0781 3.24099C12.0781 3.51574 11.7963 4.70866 11.13 5.89765C11.0541 6.03295 11.0162 6.18287 11.0162 6.33257C11.0162 6.84913 11.4404 7.1898 11.9068 7.1898H17.0131C17.4033 7.22245 17.7188 7.53788 17.7188 7.92382C17.7188 8.28782 17.4306 8.5929 17.063 8.61813C16.5932 8.65002 16.2333 9.04118 16.2333 9.50653C16.2333 10.0806 16.6559 10.0984 16.6559 10.5794C16.6559 11.5208 15.356 11.0373 15.356 12.1435C15.356 12.5599 15.5932 12.6271 15.5932 12.9692C15.5932 13.8101 14.4885 13.4798 14.4885 14.4773C14.4885 14.6449 14.5296 14.6985 14.5296 14.8282C14.5296 15.216 14.2136 15.5315 13.8257 15.5315H11.8763C10.9256 15.5315 9.983 15.2173 9.223 14.6479L7.86257 13.627C7.70245 13.5066 7.51486 13.4485 7.32894 13.4485C6.81498 13.4485 6.4372 13.8708 6.4372 14.3406C6.4372 14.611 6.56011 14.8757 6.7933 15.0505L8.15411 16.0717C9.2207 16.8709 10.5418 17.3125 11.8777 17.3125H13.8271C15.1382 17.3125 16.2154 16.2924 16.306 15.0043C16.9654 14.5504 17.3759 13.7979 17.3759 12.9696C17.3759 12.8565 17.3677 12.743 17.3521 12.6311C18.0141 12.1802 18.4387 11.422 18.4387 10.5797C18.4387 10.3826 18.4149 10.1885 18.3691 9.99927C19.051 9.52323 19.5 8.78476 19.5 7.92382Z" fill="#211F1F" fill-opacity="0.64"/>
</svg>
