<svg width="19" height="19" viewBox="0 0 19 19" fill="none" xmlns="http://www.w3.org/2000/svg">
<path d="M5.84375 3.0625C5.84375 2.73594 6.11094 2.46875 6.4375 2.46875H15.9375C16.2641 2.46875 16.5312 2.73594 16.5312 3.0625V10.1875H14.75C14.0932 10.1875 13.5625 10.7182 13.5625 11.375V13.1562H6.4375C6.11094 13.1562 5.84375 12.8891 5.84375 12.5625V3.0625ZM4.0625 3.0625V12.5625C4.0625 13.8725 5.12754 14.9375 6.4375 14.9375H13.7666C14.3975 14.9375 15.0023 14.6889 15.4477 14.2436L17.6186 12.0727C18.0639 11.6273 18.3125 11.0225 18.3125 10.3916V3.0625C18.3125 1.75254 17.2475 0.6875 15.9375 0.6875H6.4375C5.12754 0.6875 4.0625 1.75254 4.0625 3.0625ZM12.375 17.6094C12.375 17.1158 11.9779 16.7188 11.4844 16.7188H5.54688C3.74336 16.7188 2.28125 15.2566 2.28125 13.4531V5.14062C2.28125 4.64707 1.88418 4.25 1.39062 4.25C0.89707 4.25 0.5 4.64707 0.5 5.14062V13.4531C0.5 16.24 2.75996 18.5 5.54688 18.5H11.4844C11.9779 18.5 12.375 18.1029 12.375 17.6094Z" fill="#211F1F" fill-opacity="0.64"/>
</svg>
