<svg width="22" height="20" viewBox="0 0 22 20" fill="none" xmlns="http://www.w3.org/2000/svg">
<path d="M21.5427 3.55707C21.4462 3.15666 21.0863 2.875 20.6744 2.875H16.9337C16.9427 2.41299 16.9377 1.99551 16.928 1.64965C16.9115 1.0058 16.3882 0.5 15.7425 0.5H6.25738C5.61168 0.5 5.08844 1.0058 5.06988 1.64965C5.02906 1.99551 5.05504 2.41299 5.06617 2.875H1.32406C0.912146 2.875 0.555042 3.15666 0.45763 3.55707C0.427497 3.68324 -0.27053 6.70469 1.6881 9.6252C3.07748 11.6966 5.42131 13.1517 8.64611 13.9818C9.34006 14.1601 10.109 14.8068 10.109 15.5234C10.109 15.5231 10.109 15.5236 10.109 15.5234L10.1093 17.7188H7.14058C6.64888 17.7188 6.28336 18.1177 6.28336 18.6094C6.28336 19.1011 6.65074 19.5 7.14058 19.5H14.8259C15.3176 19.5 15.6832 19.1011 15.6832 18.6094C15.6832 18.1177 15.2842 17.7188 14.8259 17.7188H11.8906V15.5204C11.8917 14.8046 12.6595 14.1592 13.3531 13.9811C16.5801 13.1521 18.9232 11.697 20.3111 9.62445C22.2701 6.70469 21.5724 3.68324 21.5427 3.55707ZM3.1851 8.65664C2.14826 7.12773 2.05697 5.53574 2.10781 4.65625H5.09103C5.2899 6.86871 5.84621 9.52129 7.23113 11.6736C5.41129 10.95 4.05679 9.94063 3.1851 8.65664ZM11 13.5625C8.93297 11.2506 6.83258 9.06855 6.84371 2.28125H15.1228C15.1673 9.06484 13.0669 11.2469 11 13.5625ZM18.8152 8.65664C17.9453 9.94063 16.5909 10.9481 14.7703 11.6707C16.1545 9.52129 16.7111 6.86797 16.9078 4.65625H19.891C19.9099 5.53574 19.8505 7.13145 18.8152 8.65664Z" fill="#211F1F" fill-opacity="0.64"/>
</svg>
