<svg width="24" height="20" viewBox="0 0 24 20" fill="none" xmlns="http://www.w3.org/2000/svg">
<path d="M4.09941 11.1616L2.04059 12.3491C1.76227 12.5022 1.586 12.7993 1.58117 13.124C1.58117 13.444 1.7528 13.7411 2.03131 13.9033C2.31427 14.061 2.65734 14.0564 2.93121 13.8894L4.99078 12.7019C5.40344 12.4514 5.5426 11.9133 5.30157 11.4958C5.06055 11.0726 4.52246 10.9241 4.09941 11.1616ZM4.99004 2.5504L2.93047 1.3629C2.65679 1.19591 2.31371 1.19127 2.03057 1.34899C1.75225 1.51134 1.58043 1.8084 1.58043 2.12828C1.586 2.45318 1.76227 2.75005 2.04059 2.90294L4.09941 4.09044C4.37402 4.25929 4.71914 4.263 5.00117 4.10454C5.27949 3.942 5.4502 3.64513 5.4502 3.32525C5.44648 3.00054 5.26836 2.70367 4.99004 2.5504ZM4.28125 7.62511C4.28125 7.13341 3.88232 6.73449 3.39062 6.73449H1.01562C0.523926 6.73449 0.125 7.13341 0.125 7.62511C0.125 8.11681 0.523926 8.51574 1.01562 8.51574H3.39062C3.88418 8.51574 4.28125 8.11867 4.28125 7.62511ZM19.459 4.21105C19.6121 4.21105 19.7651 4.1693 19.9043 4.09044L21.9594 2.90294C22.3769 2.65245 22.5116 2.11437 22.2702 1.69689C22.029 1.27458 21.4909 1.12615 21.0686 1.3629L19.0137 2.5504C18.6611 2.74987 18.4941 3.16271 18.5962 3.55236C18.702 3.94201 19.0545 4.21105 19.459 4.21105ZM22.9844 6.73449H20.6094C20.1177 6.73449 19.7188 7.13341 19.7188 7.62511C19.7188 8.11681 20.1177 8.51574 20.6094 8.51574H22.9844C23.4761 8.51574 23.875 8.11681 23.875 7.62511C23.875 7.13341 23.4779 6.73449 22.9844 6.73449ZM21.9602 12.3491L19.9006 11.1616C19.6269 10.9946 19.2838 10.99 19.0007 11.1477C18.7224 11.3101 18.5509 11.6071 18.5509 11.927C18.5556 12.2517 18.7318 12.5486 19.0103 12.7019L21.0699 13.8894C21.4922 14.1259 22.0303 13.9775 22.2715 13.5554C22.5131 13.1359 22.3721 12.5978 21.9602 12.3491ZM12 0.500244C8.21484 0.51213 5.46875 3.57945 5.46875 6.99796C5.46875 8.64488 6.07734 10.1456 7.08375 11.2952C7.69717 11.9944 8.6557 13.4572 9.02234 14.69C9.02351 14.6993 9.02544 14.7084 9.0266 14.7182L14.9752 14.7182C14.9764 14.7084 14.9772 14.6999 14.9783 14.69C15.3448 13.4572 16.3035 11.9944 16.9169 11.2952C17.9227 10.1782 18.5312 8.67902 18.5312 6.99796C18.5312 3.42433 15.607 0.500389 12 0.500244ZM15.5773 10.1523C14.9962 10.8147 14.277 11.8704 13.7571 12.9685H10.2462C9.72631 11.8704 9.00713 10.8147 8.42637 10.1526C7.66563 9.28761 7.25 8.14835 7.25 6.99796C7.25 4.7046 9.03496 2.29064 11.9666 2.28136C14.6199 2.28136 16.75 4.41144 16.75 6.99796C16.75 8.14835 16.3344 9.28761 15.5773 10.1523ZM9.03496 17.3626C9.03496 17.5963 9.1051 17.8239 9.23383 18.0187L9.86803 18.972C10.0629 19.2643 10.5056 19.502 10.857 19.502H13.1474C13.4976 19.502 13.9408 19.2647 14.1356 18.9724L14.7698 18.0191C14.8797 17.8525 14.9688 17.5593 14.9688 17.3626V15.9391L9.03496 15.9393V17.3626ZM11.4062 3.46886C9.76973 3.46886 8.4375 4.80109 8.4375 6.43761C8.4375 6.76581 8.70305 7.03173 9.03125 7.03173C9.35945 7.03173 9.625 6.76417 9.625 6.43761C9.625 5.45533 10.424 4.65636 11.4062 4.65636C11.7344 4.65636 12 4.39121 12 4.06298C12 3.73475 11.7328 3.46886 11.4062 3.46886Z" fill="#211F1F" fill-opacity="0.64"/>
</svg>
