<svg width="22" height="20" viewBox="0 0 22 20" fill="none" xmlns="http://www.w3.org/2000/svg">
<path d="M10.1057 2.14951L11 3.67137L11.8943 2.14951C12.4955 1.12752 13.5939 0.5 14.7777 0.5H14.8594C16.6629 0.5 18.125 1.96211 18.125 3.76562C18.125 4.3 17.9951 4.77129 17.7687 5.25H19.3125C20.6225 5.25 21.6875 6.31504 21.6875 7.625V17.125C21.6875 18.435 20.6225 19.5 19.3125 19.5H2.6875C1.37568 19.5 0.3125 18.435 0.3125 17.125V7.625C0.3125 6.31504 1.37568 5.25 2.6875 5.25H4.23125C4.0034 4.77129 3.875 4.3 3.875 3.76562C3.875 1.96211 5.33711 0.5 7.14062 0.5H7.22227C8.40605 0.5 9.50449 1.12752 10.1057 2.14951ZM12.1393 5.25H14.8594C15.6795 5.25 16.3438 4.58574 16.3438 3.76562C16.3438 2.94588 15.6795 2.28125 14.8594 2.28125H14.7777C14.2248 2.28125 13.7127 2.57479 13.4307 3.05238L12.1393 5.25ZM11 7.8291L8.71406 10.5715C8.36895 10.9463 7.83828 10.9982 7.45977 10.6828C7.08496 10.3377 7.03301 9.80703 7.34844 9.42852L9.34492 7.03125H2.6875C2.35945 7.03125 2.09375 7.29844 2.09375 7.625V12.375H19.9062V7.625C19.9062 7.29844 19.6391 7.03125 19.3125 7.03125H12.6551L14.6516 9.42852C14.967 9.80703 14.915 10.3377 14.5402 10.6828C14.1617 10.9982 13.5977 10.9463 13.2859 10.5715L11 7.8291ZM2.09375 14.75V17.125C2.09375 17.4516 2.35945 17.7188 2.6875 17.7188H19.3125C19.6391 17.7188 19.9062 17.4516 19.9062 17.125V14.75H2.09375ZM9.86074 5.25L8.56934 3.05238C8.2873 2.57479 7.7752 2.28125 7.22227 2.28125H7.14062C6.32051 2.28125 5.65625 2.94588 5.65625 3.76562C5.65625 4.58574 6.32051 5.25 7.14062 5.25H9.86074Z" fill="#211F1F" fill-opacity="0.64"/>
</svg>
