<svg width="12" height="20" viewBox="0 0 12 20" fill="none" xmlns="http://www.w3.org/2000/svg">
<path d="M6.89063 3.22605C7.90372 3.32996 8.85001 3.52664 9.54395 3.69066C10.0227 3.80385 10.3195 4.25176 10.2082 4.76387C10.0932 5.24258 9.61446 5.53574 9.13575 5.42441C7.99278 5.15352 6.33028 4.8418 4.90899 4.96055C4.20391 5.01621 3.63169 5.14238 3.22682 5.43184C2.85276 5.66934 2.5852 6.01074 2.47795 6.55996C2.39372 6.99414 2.45235 7.27246 2.55069 7.47285C2.65534 7.68066 2.8509 7.88848 3.18674 8.09629C3.89962 8.53789 4.92754 8.81621 6.21895 9.13535L6.3043 9.15762C7.45469 9.45078 8.7795 9.78848 9.75176 10.3896C10.2676 10.7088 10.7463 11.1393 11.0432 11.733C11.3438 12.3045 11.3846 13.0244 11.2695 13.7777C11.0135 15.0914 10.0598 15.9486 8.87598 16.3977C8.27852 16.6277 7.60684 16.7613 6.89063 16.8059V18.6094C6.89063 19.1029 6.49356 19.5 6.00001 19.5C5.50645 19.5 5.10938 19.1029 5.10938 18.6094V16.765C4.98692 16.7502 4.86446 16.7354 4.742 16.7205L4.70489 16.7168C3.81426 16.5832 2.17848 16.2047 1.18506 15.7631C0.73567 15.5627 0.533423 15.0357 0.733072 14.5867C0.93272 14.1377 1.4593 13.9336 1.9087 14.134C2.69579 14.4828 4.15196 14.8316 4.99063 14.9541C6.31172 15.1396 7.43985 15.0395 8.24141 14.7352C9.02442 14.4346 9.41778 13.9818 9.52168 13.44C9.60704 12.9725 9.54766 12.7275 9.44747 12.5271C9.34356 12.3193 9.15059 12.1115 8.8129 11.9037C8.1004 11.4621 7.03907 11.1838 5.78106 10.8646L5.69571 10.8424C4.54532 10.5492 3.22014 10.2115 2.24899 9.61035C1.73169 9.29121 1.25483 8.86074 0.957584 8.26699C0.654771 7.66211 0.58315 6.97559 0.729732 6.22227C0.933091 5.14238 1.49901 4.41875 2.272 3.92854C3.01419 3.45688 3.90333 3.25352 4.76426 3.18375C4.8793 3.17447 4.99434 3.16742 5.10938 3.16223V1.39062C5.10938 0.898926 5.50645 0.5 6.00001 0.5C6.49356 0.5 6.89063 0.898926 6.89063 1.39062V3.22605Z" fill="#211F1F" fill-opacity="0.64"/>
</svg>
