<svg width="18" height="18" viewBox="0 0 18 18" fill="none" xmlns="http://www.w3.org/2000/svg">
<path d="M9.59375 0.6875C10.5771 0.6875 11.375 1.48498 11.375 2.46875V15.5312C11.375 16.5146 10.5771 17.3125 9.59375 17.3125H8.40625C7.42285 17.3125 6.625 16.5146 6.625 15.5312V2.46875C6.625 1.48498 7.42285 0.6875 8.40625 0.6875H9.59375ZM9.59375 2.46875H8.40625V15.5312H9.59375V2.46875ZM3.65625 7.8125C4.63965 7.8125 5.4375 8.61035 5.4375 9.59375V15.5312C5.4375 16.5146 4.63965 17.3125 3.65625 17.3125H2.46875C1.48498 17.3125 0.6875 16.5146 0.6875 15.5312V9.59375C0.6875 8.61035 1.48498 7.8125 2.46875 7.8125H3.65625ZM3.65625 9.59375H2.46875V15.5312H3.65625V9.59375ZM12.5625 4.84375C12.5625 3.86035 13.3604 3.0625 14.3438 3.0625H15.5312C16.5146 3.0625 17.3125 3.86035 17.3125 4.84375V15.5312C17.3125 16.5146 16.5146 17.3125 15.5312 17.3125H14.3438C13.3604 17.3125 12.5625 16.5146 12.5625 15.5312V4.84375ZM14.3438 15.5312H15.5312V4.84375H14.3438V15.5312Z" fill="#211F1F" fill-opacity="0.64"/>
</svg>
