<svg width="18" height="20" viewBox="0 0 18 20" fill="none" xmlns="http://www.w3.org/2000/svg">
<path d="M10.7812 11.7812H7.21875C3.61172 11.7812 0.6875 14.7055 0.6875 18.3125C0.6875 18.9682 1.21928 19.5 1.875 19.5H16.125C16.7807 19.5 17.3125 18.9682 17.3125 18.3125C17.3125 14.7055 14.3883 11.7812 10.7812 11.7812ZM2.50549 17.7188C2.79865 15.3771 4.79922 13.5625 7.21875 13.5625H10.7812C13.1993 13.5625 15.201 15.379 15.4941 17.7188H2.50549ZM9 10C11.6233 10 13.75 7.87326 13.75 5.25C13.75 2.62674 11.6233 0.5 9 0.5C6.37674 0.5 4.25 2.62674 4.25 5.25C4.25 7.87363 6.37637 10 9 10ZM9 2.28125C10.6369 2.28125 11.9688 3.61311 11.9688 5.25C11.9688 6.88689 10.6369 8.21875 9 8.21875C7.36311 8.21875 6.03125 6.88652 6.03125 5.25C6.03125 3.61311 7.36348 2.28125 9 2.28125Z" fill="#211F1F" fill-opacity="0.64"/>
</svg>
