<svg width="16" height="20" viewBox="0 0 16 20" fill="none" xmlns="http://www.w3.org/2000/svg">
<path d="M12.75 2.875H11.2656H10.9094C10.6348 1.52051 9.43613 0.5 8 0.5C6.56387 0.5 5.36523 1.52051 5.09062 2.875H4.73438H3.25C1.94004 2.875 0.875 3.94004 0.875 5.25V17.125C0.875 18.435 1.94004 19.5 3.25 19.5H12.75C14.06 19.5 15.125 18.435 15.125 17.125V5.25C15.125 3.94004 14.06 2.875 12.75 2.875ZM3.84375 4.65625V5.54688C3.84375 6.04043 4.24082 6.4375 4.73438 6.4375H8H11.2656C11.7592 6.4375 12.1562 6.04043 12.1562 5.54688V4.65625H12.75C13.0766 4.65625 13.3438 4.92344 13.3438 5.25V17.125C13.3438 17.4516 13.0766 17.7188 12.75 17.7188H3.25C2.92344 17.7188 2.65625 17.4516 2.65625 17.125V5.25C2.65625 4.92344 2.92344 4.65625 3.25 4.65625H3.84375ZM7.10938 3.46875C7.10938 3.23254 7.20321 3.00601 7.37023 2.83898C7.53726 2.67196 7.76379 2.57812 8 2.57812C8.23621 2.57812 8.46274 2.67196 8.62977 2.83898C8.79679 3.00601 8.89062 3.23254 8.89062 3.46875C8.89062 3.70496 8.79679 3.93149 8.62977 4.09852C8.46274 4.26554 8.23621 4.35938 8 4.35938C7.76379 4.35938 7.53726 4.26554 7.37023 4.09852C7.20321 3.93149 7.10938 3.70496 7.10938 3.46875ZM5.92188 10.5938C5.92188 10.4768 5.89884 10.361 5.85408 10.2529C5.80932 10.1449 5.74372 10.0467 5.66102 9.96398C5.57831 9.88128 5.48013 9.81568 5.37208 9.77092C5.26402 9.72616 5.14821 9.70312 5.03125 9.70312C4.91429 9.70312 4.79848 9.72616 4.69042 9.77092C4.58237 9.81568 4.48418 9.88128 4.40148 9.96398C4.31878 10.0467 4.25318 10.1449 4.20842 10.2529C4.16366 10.361 4.14062 10.4768 4.14062 10.5938C4.14062 10.7107 4.16366 10.8265 4.20842 10.9346C4.25318 11.0426 4.31878 11.1408 4.40148 11.2235C4.48418 11.3062 4.58237 11.3718 4.69042 11.4166C4.79848 11.4613 4.91429 11.4844 5.03125 11.4844C5.14821 11.4844 5.26402 11.4613 5.37208 11.4166C5.48013 11.3718 5.57831 11.3062 5.66102 11.2235C5.74372 11.1408 5.80932 11.0426 5.85408 10.9346C5.89884 10.8265 5.92188 10.7107 5.92188 10.5938ZM7.40625 10C7.07969 10 6.8125 10.2672 6.8125 10.5938C6.8125 10.9203 7.07969 11.1875 7.40625 11.1875H10.9688C11.2953 11.1875 11.5625 10.9203 11.5625 10.5938C11.5625 10.2672 11.2953 10 10.9688 10H7.40625ZM7.40625 13.5625C7.07969 13.5625 6.8125 13.8297 6.8125 14.1562C6.8125 14.4828 7.07969 14.75 7.40625 14.75H10.9688C11.2953 14.75 11.5625 14.4828 11.5625 14.1562C11.5625 13.8297 11.2953 13.5625 10.9688 13.5625H7.40625ZM5.03125 15.0469C5.26746 15.0469 5.49399 14.953 5.66102 14.786C5.82804 14.619 5.92188 14.3925 5.92188 14.1562C5.92188 13.92 5.82804 13.6935 5.66102 13.5265C5.49399 13.3595 5.26746 13.2656 5.03125 13.2656C4.79504 13.2656 4.56851 13.3595 4.40148 13.5265C4.23446 13.6935 4.14062 13.92 4.14062 14.1562C4.14062 14.3925 4.23446 14.619 4.40148 14.786C4.56851 14.953 4.79504 15.0469 5.03125 15.0469Z" fill="#211F1F" fill-opacity="0.64"/>
</svg>
