<svg width="24" height="18" viewBox="0 0 24 18" fill="none" xmlns="http://www.w3.org/2000/svg">
<path d="M23.2479 4.58027L12.757 0.824805C12.5307 0.733145 12.2672 0.6875 12 0.6875C11.7328 0.6875 11.4693 0.733145 11.2133 0.824063L0.720605 4.58027C0.36391 4.71016 0.125 5.05156 0.125 5.4375C0.125 5.82344 0.36391 6.1667 0.720605 6.29436L2.94791 7.09258C2.50668 7.67891 2.19607 8.36023 2.03688 9.09463C1.61123 9.27461 1.3125 9.69766 1.3125 10.1875C1.3125 10.5568 1.49114 10.8737 1.75559 11.0915L0.83416 16.6208C0.773672 16.9822 1.05273 17.3125 1.41975 17.3125H3.58025C3.94715 17.3125 4.22633 16.983 4.16584 16.6212L3.24441 11.0919C3.509 10.874 3.6875 10.5252 3.6875 10.1875C3.6875 9.80564 3.4955 9.48131 3.21547 9.26385C3.37326 8.60478 3.69344 8.00881 4.14098 7.51859L11.214 10.0506C11.4693 10.143 11.7328 10.1875 12 10.1875C12.2672 10.1875 12.5325 10.1419 12.7871 10.0508L23.2779 6.29532C23.6375 6.16484 23.875 5.82344 23.875 5.4375C23.875 5.05156 23.6375 4.71016 23.2479 4.58027ZM12.1893 8.37285C12.0249 8.43163 11.8851 8.39815 11.8148 8.37307L6.6377 6.52109L12.1744 4.81703C12.4881 4.72077 12.6628 4.38842 12.5667 4.0741C12.4704 3.76097 12.1373 3.58166 11.8241 3.6826L4.77109 5.85313L3.6118 5.4375L11.7796 2.50141C11.9439 2.44262 12.0838 2.47604 12.154 2.50119L20.3867 5.4375L12.1893 8.37285ZM16.9096 9.83496L17.3438 13.9986C17.3438 14.392 15.5068 15.5312 12 15.5312C8.49316 15.5312 6.65625 14.3912 6.65625 13.9971L7.09117 9.83719L5.38117 9.22488L4.87982 13.9044C4.875 16.1732 8.45977 17.3125 12 17.3125C15.5402 17.3125 19.125 16.1736 19.1213 13.9055L18.6199 9.226L16.9096 9.83496Z" fill="#211F1F" fill-opacity="0.64"/>
</svg>
