<svg width="38" height="38" viewBox="0 0 38 38" fill="none" xmlns="http://www.w3.org/2000/svg">
<path d="M13.9754 10.9176C14.532 10.5984 15.2223 10.5465 15.7715 10.9473L26.459 17.4785C26.9859 17.8051 27.3125 18.3766 27.3125 19C27.3125 19.6234 26.9859 20.1949 26.459 20.5215L15.7715 27.0527C15.2223 27.3867 14.532 27.4016 13.9754 27.0824C13.4113 26.7707 13.0625 26.177 13.0625 25.5312V12.402C13.0625 11.823 13.4113 11.2293 13.9754 10.9176ZM38 19C38 29.4945 29.4945 38 19 38C8.50547 38 0 29.4945 0 19C0 8.50547 8.50547 0 19 0C29.4945 0 38 8.50547 38 19ZM19 3.5625C10.4723 3.5625 3.5625 10.4723 3.5625 19C3.5625 27.5277 10.4723 34.4375 19 34.4375C27.5277 34.4375 34.4375 27.5277 34.4375 19C34.4375 10.4723 27.5277 3.5625 19 3.5625Z" fill="white"/>
</svg>
