<svg width="22" height="16" viewBox="0 0 22 16" fill="none" xmlns="http://www.w3.org/2000/svg">
<path d="M21.0492 2.19758C20.6562 1.99407 20.182 2.02094 19.819 2.27547L16.0042 4.94883C15.7352 5.13668 15.6702 5.50733 15.8581 5.77563C16.0135 6.04434 16.4143 6.10742 16.6852 5.92188L20.5 3.25V12.7463L16.6852 10.0781C16.4155 9.89083 16.0461 9.95522 15.8584 10.2243C15.6705 10.4927 15.7355 10.8633 16.0045 11.0511L19.8193 13.7222C20.0234 13.8648 20.2624 13.9369 20.5014 13.9369C20.6887 13.9369 20.877 13.8923 21.0499 13.8024C21.4426 13.5961 21.6875 13.1619 21.6875 12.7166V3.25C21.6875 2.80469 21.4426 2.40391 21.0492 2.19758ZM12.1875 0.875H2.6875C1.37568 0.875 0.3125 1.93818 0.3125 3.25V12.75C0.3125 14.0618 1.37568 15.125 2.6875 15.125H12.1875C13.4993 15.125 14.5625 14.0618 14.5625 12.75V3.25C14.5625 1.93818 13.4975 0.875 12.1875 0.875ZM13.375 12.75C13.375 13.4046 12.8421 13.9375 12.1875 13.9375H2.6875C2.03289 13.9375 1.5 13.4046 1.5 12.75V3.25C1.5 2.59539 2.03289 2.0625 2.6875 2.0625H12.1875C12.8421 2.0625 13.375 2.59539 13.375 3.25V12.75Z" fill="#211F1F" fill-opacity="0.87"/>
</svg>
